External Loads File
version=1
nRows=38
nColumns=13
Range=5.000000e-03-10 seconds
endheader
time 	forceRightX 	forceRightY 	forceRightZ 	pointRightX 	pointRightY 	pointRightZ 	forceLeftX 	forceLeftY 	forceLeftZ 	pointLeftX 	pointLeftY 	pointLeftZ 		
5.005000 176.155682 259.341382 -0.000000 0.214342 0.166747 -0.147059 -41.539092 151.936110 -0.000000 0.354701 0.486511 -0.385343
5.010000 143.235313 182.231495 -0.000000 0.207065 0.171929 -0.147349 -39.013302 187.225366 -0.000000 0.361407 0.481299 -0.385964
5.015000 111.353045 113.111896 -0.000000 0.199827 0.177677 -0.147587 -39.156925 224.911799 -0.000000 0.367694 0.475371 -0.386625
5.020000 81.817980 53.000493 -0.000000 0.192691 0.183917 -0.147860 -41.670213 265.037895 -0.000000 0.374183 0.468619 -0.387612
5.025000 55.342240 2.473647 -0.000000 0.185627 0.190710 -0.148040 -46.789040 307.216494 -0.000000 0.380107 0.461176 -0.388088
5.030000 32.551560 -38.790165 -0.000000 0.178786 0.198038 -0.148226 -54.079391 350.841724 -0.000000 0.385764 0.453143 -0.388440
5.035000 13.610828 -71.410275 -0.000000 0.172199 0.206061 -0.148437 -62.948510 395.111578 -0.000000 0.391121 0.444605 -0.388525
5.040000 -1.540898 -96.055379 -0.000000 0.166073 0.214403 -0.148597 -73.089255 439.091670 -0.000000 0.396275 0.435551 -0.388540
5.045000 -13.221824 -113.334941 -0.000000 0.159865 0.223112 -0.149142 -83.492434 482.024620 -0.000000 0.400968 0.425949 -0.388414
5.050000 -21.498378 -123.811572 -0.000000 0.154834 0.232376 -0.149312 -94.337826 523.142337 -0.000000 0.405235 0.415793 -0.388312
5.055000 -26.561274 -128.085200 -0.000000 0.150268 0.241900 -0.149417 -105.195371 562.021095 -0.000000 0.409339 0.405645 -0.388064
5.060000 -28.551215 -126.885226 -0.000000 0.146461 0.251693 -0.149575 -115.996340 598.442479 -0.000000 0.412664 0.395172 -0.387922
5.065000 -27.853260 -121.054892 -0.000000 0.143079 0.261642 -0.149778 -125.799033 632.611746 -0.000000 0.415831 0.384520 -0.387742
5.070000 -24.639645 -111.647058 -0.000000 0.140383 0.271744 -0.149958 -135.061225 664.640732 -0.000000 0.418379 0.373777 -0.387613
5.075000 -19.533885 -99.723314 -0.000000 0.138286 0.282164 -0.150157 -142.260833 695.136309 -0.000000 0.420273 0.362620 -0.387418
5.080000 -13.018490 -86.393649 -0.000000 0.136819 0.292733 -0.150421 -146.930703 724.505478 -0.000000 0.421785 0.351025 -0.387154
5.085000 -5.418542 -72.674006 -0.000000 0.136004 0.303404 -0.150570 -150.923036 752.612002 -0.000000 0.422727 0.339838 -0.386972
5.090000 2.477905 -59.309284 -0.000000 0.135850 0.314187 -0.150765 -152.745548 779.963465 -0.000000 0.423234 0.328578 -0.387168
5.095000 10.119664 -46.871280 -0.000000 0.136238 0.325100 -0.150980 -152.223122 806.847060 -0.000000 0.422689 0.317279 -0.386846
5.100000 17.169660 -35.716553 -0.000000 0.137308 0.335834 -0.151142 -151.630411 833.160501 -0.000000 0.421593 0.306583 -0.386177
5.105000 23.099828 -26.195620 -0.000000 0.139183 0.346686 -0.151258 -147.277754 859.919267 -0.000000 0.420111 0.295553 -0.386027
5.110000 27.705870 -18.556095 -0.000000 0.141331 0.357525 -0.151430 -139.179100 887.374516 -0.000000 0.417930 0.284154 -0.385849
5.115000 30.826808 -12.865546 -0.000000 0.144098 0.368279 -0.151444 -130.338564 915.273416 -0.000000 0.415151 0.273476 -0.385661
5.120000 32.192575 -9.279560 -0.000000 0.147470 0.379081 -0.151534 -118.598620 944.065992 -0.000000 0.412286 0.262864 -0.385889
5.125000 31.630102 -7.797040 -0.000000 0.151603 0.389710 -0.151635 -103.946170 973.629505 -0.000000 0.408842 0.252480 -0.386034
5.130000 29.016622 -8.333826 -0.000000 0.156242 0.400167 -0.151823 -84.997762 1003.677467 -0.000000 0.404303 0.242280 -0.385872
5.135000 24.318329 -10.626063 -0.000000 0.161543 0.410460 -0.151907 -61.011650 1033.447333 -0.000000 0.398591 0.232495 -0.385663
5.140000 17.669641 -14.191208 -0.000000 0.167294 0.420418 -0.152144 -34.765844 1061.771776 -0.000000 0.392867 0.223171 -0.385413
5.145000 9.347077 -18.571352 -0.000000 0.173480 0.429986 -0.152455 -5.527120 1087.750822 -0.000000 0.386612 0.214315 -0.385177
5.150000 -0.218222 -23.271968 -0.000000 0.180206 0.439206 -0.152913 27.059430 1110.409971 -0.000000 0.379775 0.205932 -0.384952
5.155000 -10.485033 -27.853633 -0.000000 0.187368 0.448250 -0.153320 62.539791 1128.727179 -0.000000 0.372443 0.198023 -0.384680
5.160000 -20.892442 -32.049688 -0.000000 0.195021 0.456481 -0.153756 99.141992 1141.814746 -0.000000 0.364709 0.190460 -0.384403
5.165000 -30.979733 -35.790184 -0.000000 0.203093 0.463995 -0.154193 134.880191 1149.113665 -0.000000 0.356552 0.184059 -0.384249
5.170000 -40.559641 -38.949961 -0.000000 0.211553 0.470952 -0.154612 172.377780 1149.800670 -0.000000 0.347964 0.177203 -0.384232
5.175000 -49.428492 -41.444584 -0.000000 0.221267 0.477269 -0.154275 210.095081 1143.619262 -0.000000 0.339140 0.171480 -0.384149
5.180000 -57.229392 -43.433935 -0.000000 0.229702 0.483135 -0.155277 240.507947 1131.914780 -0.000000 0.330042 0.166395 -0.384080
5.185000 -64.154555 -44.399568 -0.000000 0.239309 0.487640 -0.155541 269.570081 1113.794683 -0.000000 0.320736 0.161969 -0.384020
5.190000 -70.066394 -44.150008 -0.000000 0.248734 0.492479 -0.155864 294.004404 1090.207149 -0.000000 0.311263 0.158224 -0.383894
